<svg height="480pt" viewBox="0 0 480 480" width="480pt" xmlns="http://www.w3.org/2000/svg" xmlns:xlink="http://www.w3.org/1999/xlink"><linearGradient id="a"><stop offset="0" stop-color="#fc4a1a"/><stop offset="1" stop-color="#f7b733"/></linearGradient><linearGradient id="b" gradientUnits="userSpaceOnUse" x1="-16" x2="475.2" xlink:href="#a" y1="240" y2="240"/><linearGradient id="c" gradientUnits="userSpaceOnUse" x1="-16" x2="475.2" xlink:href="#a" y1="184" y2="184"/><linearGradient id="d" gradientUnits="userSpaceOnUse" x1="-16" x2="475.2" xlink:href="#a" y1="216" y2="216"/><path d="m472 0h-32c-4.417969 0-8 3.582031-8 8v8h-24c-4.417969 0-8 3.582031-8 8v24h-320v-24c0-4.417969-3.582031-8-8-8h-24v-8c0-4.417969-3.582031-8-8-8h-32c-4.417969 0-8 3.582031-8 8v128c0 4.417969 3.582031 8 8 8h32c4.417969 0 8-3.582031 8-8v-8h24c4.417969 0 8-3.582031 8-8v-24h16v336h-88c-4.417969 0-8 3.582031-8 8v32c0 4.417969 3.582031 8 8 8h464c4.417969 0 8-3.582031 8-8v-32c0-4.417969-3.582031-8-8-8h-88v-336h16v24c0 4.417969 3.582031 8 8 8h24v8c0 4.417969 3.582031 8 8 8h32c4.417969 0 8-3.582031 8-8v-128c0-4.417969-3.582031-8-8-8zm-440 128h-16v-112h16zm32-16h-16v-80h16zm272-16v336h-72v-32h40v-16h-40v-32h48c4.417969 0 8-3.582031 8-8v-32c-.019531-15.886719-9.441406-30.253906-24-36.609375v-123.390625c0-4.417969-3.582031-8-8-8h-96c-4.417969 0-8 3.582031-8 8v123.390625c-14.558594 6.355469-23.980469 20.722656-24 36.609375v32c0 4.417969 3.582031 8 8 8h48v32h-40v16h40v32h-72v-336zm-56 176h-80v-112h80zm-80 16h80c10.167969.011719 19.230469 6.417969 22.632812 16h-125.265624c3.402343-9.582031 12.464843-15.988281 22.632812-16zm-24 32h128v16h-128zm56 32h16v80h-16zm-104-240h-16v-16h16zm-16 16h16v304h-16zm-96 320h16v16h-16zm448 16h-16v-16h16zm-32 0h-384v-16h384zm-80-32v-304h16v304zm16-320h-16v-16h16zm-288-32v-16h320v16zm336 32v-80h16v80zm48 16h-16v-112h16zm0 0" fill="url(#b)"/><path d="m224 176h32v16h-32zm0 0" fill="url(#c)"/><path d="m224 208h32v16h-32zm0 0" fill="url(#d)"/></svg>