<svg height="480pt" viewBox="0 -24 480 480" width="480pt" xmlns="http://www.w3.org/2000/svg" xmlns:xlink="http://www.w3.org/1999/xlink"><linearGradient id="a"><stop offset="0" stop-color="#fc4a1a"/><stop offset="1" stop-color="#f7b733"/></linearGradient><linearGradient id="b" gradientUnits="userSpaceOnUse" x1="-8" x2="491.152" xlink:href="#a" y1="328.003061" y2="328.003061"/><linearGradient id="c" gradientUnits="userSpaceOnUse" x1="-8" x2="491.152" xlink:href="#a" y1="104.003061" y2="104.003061"/><path d="m472 304.003906h-24v-24c0-17.675781-14.328125-32-32-32-5.769531.027344-11.421875 1.632813-16.34375 4.640625-1.742188-16.917969-16.445312-29.496093-33.425781-28.601562-16.984375.898437-30.277344 14.953125-30.230469 31.960937v40h-192v-40c.046875-17.007812-13.246094-31.0625-30.230469-31.960937-16.980469-.894531-31.683593 11.683593-33.425781 28.601562-4.921875-3.007812-10.574219-4.613281-16.34375-4.640625-17.671875 0-32 14.324219-32 32v24h-24c-4.417969 0-8 3.582032-8 8v32c0 4.417969 3.582031 8 8 8h24v24c0 17.671875 14.328125 32 32 32 5.769531-.027344 11.421875-1.632812 16.34375-4.640625 1.742188 16.917969 16.445312 29.496094 33.425781 28.597657 16.984375-.894532 30.277344-14.953126 30.230469-31.957032v-40h192v40c-.046875 17.003906 13.246094 31.0625 30.230469 31.957032 16.980469.898437 31.683593-11.679688 33.425781-28.597657 4.921875 3.007813 10.574219 4.613281 16.34375 4.640625 17.671875 0 32-14.328125 32-32v-24h24c4.417969 0 8-3.582031 8-8v-32c0-4.417968-3.582031-8-8-8zm-456 32v-16h16v16zm48 56c-8.835938 0-16-7.164062-16-16v-96c0-8.835937 7.164062-16 16-16s16 7.164063 16 16v96c0 8.835938-7.164062 16-16 16zm64 8c0 8.835938-7.164062 16-16 16s-16-7.164062-16-16v-144c0-8.835937 7.164062-16 16-16s16 7.164063 16 16zm16-88h16v32h-16zm32 32v-32h128v32zm144 0v-32h16v32zm64 56c0 8.835938-7.164062 16-16 16s-16-7.164062-16-16v-144c0-8.835937 7.164062-16 16-16s16 7.164063 16 16zm48-24c0 8.835938-7.164062 16-16 16s-16-7.164062-16-16v-96c0-8.835937 7.164062-16 16-16s16 7.164063 16 16zm32-40h-16v-16h16zm0 0" fill="url(#b)"/><path d="m472 80.003906h-24v-24c0-17.675781-14.328125-32-32-32-5.769531.027344-11.421875 1.632813-16.34375 4.640625-1.742188-16.917969-16.445312-29.496093-33.425781-28.6015622-16.984375.8984372-30.277344 14.9531252-30.230469 31.9609372v40h-192v-40c.046875-17.007812-13.246094-31.0625-30.230469-31.9609372-16.980469-.8945308-31.683593 11.6835932-33.425781 28.6015622-4.921875-3.007812-10.574219-4.613281-16.34375-4.640625-17.671875 0-32 14.324219-32 32v24h-24c-4.417969 0-8 3.582032-8 8v32c0 4.417969 3.582031 8 8 8h24v24c0 17.671875 14.328125 32 32 32 5.769531-.027344 11.421875-1.632812 16.34375-4.640625 1.742188 16.917969 16.445312 29.496094 33.425781 28.597657 16.984375-.894532 30.277344-14.953126 30.230469-31.957032v-40h192v40c-.046875 17.003906 13.246094 31.0625 30.230469 31.957032 16.980469.898437 31.683593-11.679688 33.425781-28.597657 4.921875 3.007813 10.574219 4.613281 16.34375 4.640625 17.671875 0 32-14.328125 32-32v-24h24c4.417969 0 8-3.582031 8-8v-32c0-4.417968-3.582031-8-8-8zm-456 32v-16h16v16zm48 56c-8.835938 0-16-7.164062-16-16v-96c0-8.835937 7.164062-16 16-16s16 7.164063 16 16v96c0 8.835938-7.164062 16-16 16zm64 8c0 8.835938-7.164062 16-16 16s-16-7.164062-16-16v-144c0-8.835937 7.164062-16 16-16s16 7.164063 16 16zm16-88h16v32h-16zm32 32v-32h128v32zm144 0v-32h16v32zm64 56c0 8.835938-7.164062 16-16 16s-16-7.164062-16-16v-144c0-8.835937 7.164062-16 16-16s16 7.164063 16 16zm48-24c0 8.835938-7.164062 16-16 16s-16-7.164062-16-16v-96c0-8.835937 7.164062-16 16-16s16 7.164063 16 16zm32-40h-16v-16h16zm0 0" fill="url(#c)"/></svg>