<svg height="480pt" viewBox="-48 0 480 480.14459" width="480pt" xmlns="http://www.w3.org/2000/svg" xmlns:xlink="http://www.w3.org/1999/xlink"><linearGradient id="a"><stop offset="0" stop-color="#fc4a1a"/><stop offset="1" stop-color="#f7b733"/></linearGradient><linearGradient id="b" gradientUnits="userSpaceOnUse" x1="-39.927705" x2="444.320295" xlink:href="#a" y1="393.76" y2="393.76"/><linearGradient id="c" gradientUnits="userSpaceOnUse" x1="-39.927705" x2="444.320295" xlink:href="#a" y1="336" y2="336"/><linearGradient id="d" gradientUnits="userSpaceOnUse" x1="-39.927705" x2="444.320295" xlink:href="#a" y1="288" y2="288"/><linearGradient id="e" gradientUnits="userSpaceOnUse" x1="-39.927705" x2="444.320295" xlink:href="#a" y1="292" y2="292"/><linearGradient id="f" gradientUnits="userSpaceOnUse" x1="-39.927705" x2="444.320295" xlink:href="#a" y1="240" y2="240"/><path d="m222.136719 424.238281 3.871093 15.523438c66.402344-16.59375 107.144532-80.800781 108.847657-83.523438l-13.597657-8.476562c-.386718.613281-38.953124 61.429687-99.121093 76.476562zm0 0" fill="url(#b)"/><path d="m336.152344 344c4.417968 0 8-3.582031 8-8s-3.582032-8-8-8h-.078125c-4.421875.023438-7.984375 3.621094-7.960938 8.039062.019531 4.417969 3.621094 7.984376 8.039063 7.960938zm0 0" fill="url(#c)"/><path d="m312.074219 288c0-66.273438-53.726563-120-120-120-66.277344 0-120 53.726562-120 120s53.722656 120 120 120c66.242187-.074219 119.921875-53.757812 120-120zm-120 104c-57.441407 0-104-46.5625-104-104s46.558593-104 104-104c57.4375 0 104 46.5625 104 104-.066407 57.410156-46.589844 103.933594-104 104zm0 0" fill="url(#d)"/><path d="m160.074219 248c0-4.417969-3.582031-8-8-8h-24v16h16v72h-16v16h48v-16h-16zm0 0" fill="url(#e)"/><path d="m248.074219 240h-48c-4.421875 0-8 3.582031-8 8v88c0 4.417969 3.578125 8 8 8h48c4.417969 0 8-3.582031 8-8v-88c0-4.417969-3.582031-8-8-8zm-8 88h-32v-72h32zm0 0" fill="url(#e)"/><path d="m328.074219 8c0-4.417969-3.582031-8-8-8h-256c-4.421875 0-8 3.582031-8 8v144.617188c-74.792969 75.046874-74.652344 196.496093.3125 271.371093 74.960937 74.875 196.410156 74.875 271.371093 0 74.964844-74.875 75.105469-196.324219.316407-271.371093zm-16 130.28125c-9.953125-7.988281-20.671875-14.972656-32-20.839844v-101.441406h32zm-192-74.28125h144v46.0625c-46.171875-18.75-97.832031-18.75-144 0zm144-16h-16v-32h16zm-32 0h-80v-32h80zm-96-32v32h-16v-32zm-32 0v101.441406c-11.332031 5.867188-22.050781 12.851563-32 20.839844v-122.28125zm88 448c-97.203125 0-176-78.796875-176-176s78.796875-176 176-176c97.199219 0 176 78.796875 176 176-.113281 97.15625-78.84375 175.890625-176 176zm0 0" fill="url(#f)"/></svg>