<svg height="480pt" viewBox="0 -31 480 479" width="480pt" xmlns="http://www.w3.org/2000/svg" xmlns:xlink="http://www.w3.org/1999/xlink"><linearGradient id="a" gradientUnits="userSpaceOnUse" x1="-16" x2="475.2" y1="209.42" y2="209.42"><stop offset="0" stop-color="#fc4a1a"/><stop offset="1" stop-color="#f7b733"/></linearGradient><path d="m456 322.339844h-348.167969c-11.160156-13.492188-26.078125-23.355469-42.863281-28.335938l25.496094-155.664062h53.535156v-8h200c13.253906 0 24-10.746094 24-24s-10.746094-24-24-24h-200v-8h-57.519531l-20.457031-73.839844-61.671876 17.078125 15.71875 56.761719h-20.070312v64h41.832031l-24.902343 152h-8.929688c-4.417969 0-8 3.582031-8 8v80c0 4.417968 3.582031 8 8 8h24v32h64v-32h264v32h64v-32h32c13.253906 0 24-10.746094 24-24v-16c0-13.253906-10.746094-24-24-24zm-168-224h56c4.417969 0 8 3.582031 8 8 0 4.417968-3.582031 8-8 8h-56zm-16 0v16h-128v-16zm-247.960938-69.601563 30.839844-8.558593 15 54.160156h-33.207031zm-8.039062 61.601563h112v32h-112zm42.039062 48h16.21875l-24.984374 152.496094c-3.082032-.328126-6.175782-.492188-9.273438-.496094h-6.863281zm21.960938 264h-32v-16h32zm-64-32v-64h24c36.652344.042968 67.441406 27.578125 71.558594 64zm392 32h-32v-16h32zm56-40c0 4.417968-3.582031 8-8 8h-328.40625c-1.015625-11.164063-4.175781-22.03125-9.304688-32h337.710938c4.417969 0 8 3.582031 8 8zm0 0" fill="url(#a)"/></svg>